<?xml version="1.0" standalone="no"?>
<!DOCTYPE svg PUBLIC "-//W3C//DTD SVG 20010904//EN"
 "http://www.w3.org/TR/2001/REC-SVG-20010904/DTD/svg10.dtd">
<svg version="1.0" xmlns="http://www.w3.org/2000/svg"
 width="114.000000pt" height="114.000000pt" viewBox="0 0 114.000000 114.000000"
 preserveAspectRatio="xMidYMid meet">
<metadata>
Created by potrace 1.11, written by Peter Selinger 2001-2013
</metadata>
<g transform="translate(0.000000,114.000000) scale(0.100000,-0.100000)"
fill="#000000" stroke="none">
<path d="M34 781 c-2 -2 -4 -26 -4 -53 l0 -48 50 0 50 0 0 50 c0 33 -4 50 -12
51 -59 3 -80 3 -84 0z"/>
<path d="M47 652 c-15 -3 -17 -21 -17 -148 l0 -144 50 0 50 0 0 148 0 147 -33
0 c-18 0 -41 -1 -50 -3z"/>
<path d="M171 652 c-7 -2 -11 -48 -11 -148 l0 -144 49 0 49 0 -2 63 c-4 112 1
116 64 39 30 -37 62 -75 70 -84 14 -18 99 -26 101 -10 2 40 0 274 -3 277 -10
10 -88 11 -89 1 -1 -6 -1 -47 -1 -91 l1 -80 -27 31 c-30 34 -64 74 -102 119
-24 28 -63 39 -99 27z"/>
<path d="M654 651 c-115 -29 -174 -123 -127 -202 65 -110 259 -127 365 -31 39
35 41 36 131 36 l92 1 3 38 c2 20 0 38 -5 38 -4 1 -106 2 -225 3 -189 1 -218
-1 -220 -14 -1 -17 -1 -51 1 -62 0 -4 27 -7 59 -7 87 1 90 0 62 -16 -54 -31
-152 -8 -170 40 -15 38 -13 51 13 80 29 35 99 45 145 21 32 -16 132 -22 132
-8 0 13 -41 48 -79 67 -38 19 -130 27 -177 16z"/>
</g>
</svg>
